<svg width="130" height="32" viewBox="0 0 130 32" fill="none" xmlns="http://www.w3.org/2000/svg">
<path fill-rule="evenodd" clip-rule="evenodd" d="M15.912 3.5675C16 2.78622 16 1.85748 16 0C16 1.85748 16 2.78622 16.088 3.5675C16.8194 10.0582 21.9418 15.1806 28.4325 15.912C29.2138 16 30.1425 16 32 16C30.1425 16 29.2138 16 28.4325 16.088C21.9418 16.8194 16.8194 21.9418 16.088 28.4325C16 29.2138 16 30.1425 16 32C16 30.1425 16 29.2138 15.912 28.4325C15.1806 21.9418 10.0582 16.8194 3.5675 16.088C2.78622 16 1.85748 16 0 16C1.85748 16 2.78622 16 3.5675 15.912C10.0582 15.1806 15.1806 10.0582 15.912 3.5675Z" fill="white"/>
<path d="M36 26.2457H46.136C48.978 26.2457 51.2569 25.7794 52.9726 24.8467C54.6971 23.914 55.5594 22.5327 55.5594 20.7025C55.5594 19.4619 55.1722 18.4589 54.398 17.6934C53.6325 16.9279 52.625 16.4132 51.3756 16.1492V16.0964C52.3875 15.8413 53.2146 15.3794 53.8569 14.7107C54.508 14.0332 54.8335 13.1665 54.8335 12.1107C54.8335 10.2981 54.0152 9.00034 52.3787 8.21726C50.7421 7.42538 48.4809 7.02944 45.5949 7.02944H36V26.2457ZM40.2761 23.0518V17.7858H46.0437C47.8474 17.7858 49.1672 18.0146 50.003 18.4721C50.8477 18.9208 51.27 19.5631 51.27 20.399C51.27 21.2964 50.8521 21.9651 50.0162 22.4051C49.1804 22.8362 47.8562 23.0518 46.0437 23.0518H40.2761ZM40.2761 14.7503V10.2365H45.5025C47.2975 10.2365 48.5865 10.4169 49.3695 10.7777C50.1614 11.1384 50.5574 11.7059 50.5574 12.4802C50.5574 13.2193 50.1614 13.7824 49.3695 14.1695C48.5865 14.5567 47.2975 14.7503 45.5025 14.7503H40.2761Z" fill="white"/>
<path d="M57.869 31.7228C58.265 31.8196 58.7049 31.89 59.1888 31.934C59.6816 31.978 60.2315 32 60.8386 32C62.5807 32 64.0501 31.6569 65.2467 30.9706C66.4521 30.2843 67.4288 29.2812 68.1766 27.9614L77.666 12.1107H73.4162L68.269 20.4914C68.0667 20.8345 67.8819 21.2217 67.7147 21.6528C67.5475 22.0751 67.4024 22.5503 67.2792 23.0782H67.2264C67.0944 22.5503 66.9404 22.0707 66.7645 21.6396C66.5973 21.2085 66.4081 20.8257 66.197 20.4914L61.1553 12.1107H56.4569L64.9827 26.0213L65.5239 26.0345C64.7848 27.4423 64.0369 28.2386 63.2802 28.4234C62.5235 28.6169 61.6041 28.7137 60.5218 28.7137C60.0379 28.7137 59.5716 28.6873 59.1228 28.6345C58.6741 28.5905 58.2694 28.5333 57.9086 28.4629L57.869 31.7228Z" fill="white"/>
<path d="M78.1939 19.3827C78.1939 21.556 79.175 23.3113 81.1371 24.6487C83.1079 25.9861 85.7827 26.6548 89.1614 26.6548C91.2643 26.6548 93.1252 26.3953 94.7442 25.8761C96.3631 25.357 97.5113 24.6311 98.1888 23.6985L95.3249 21.534C94.6914 22.0619 93.8423 22.5063 92.7777 22.867C91.713 23.2278 90.5164 23.4081 89.1878 23.4081C86.909 23.4081 85.1536 23.0606 83.9218 22.3655C82.69 21.6616 82.0741 20.7157 82.0741 19.5279V18.8284C82.0741 17.6142 82.6416 16.6508 83.7766 15.9381C84.9117 15.2254 86.4514 14.869 88.3959 14.869C90.7716 14.869 92.3817 15.1286 93.2264 15.6477C94.0799 16.1668 94.5066 16.9939 94.5066 18.1289V17.6538H80.6355V20.333H98.5584V18.736C98.5672 16.554 97.6785 14.8382 95.8924 13.5888C94.1063 12.3394 91.6954 11.7147 88.6599 11.7147C85.6332 11.7147 83.1299 12.3834 81.1503 13.7208C79.1794 15.0494 78.1939 16.7959 78.1939 18.9604V19.3827Z" fill="white"/>
<path d="M100.419 19.3827C100.419 21.5736 101.436 23.3333 103.468 24.6619C105.509 25.9817 108.127 26.6416 111.321 26.6416C114.515 26.6416 117.128 25.9817 119.16 24.6619C121.193 23.3333 122.209 21.5736 122.209 19.3827V18.9604C122.209 16.7695 121.193 15.0142 119.16 13.6944C117.128 12.3746 114.515 11.7147 111.321 11.7147C108.127 11.7147 105.509 12.3746 103.468 13.6944C101.436 15.0142 100.419 16.7695 100.419 18.9604V19.3827ZM104.682 18.8152C104.682 17.6362 105.272 16.7299 106.451 16.0964C107.63 15.4541 109.253 15.133 111.321 15.133C113.388 15.133 115.007 15.4541 116.178 16.0964C117.357 16.7299 117.946 17.6362 117.946 18.8152V19.5279C117.946 20.7157 117.357 21.6308 116.178 22.2731C115.007 22.9066 113.388 23.2234 111.321 23.2234C109.244 23.2234 107.617 22.9066 106.438 22.2731C105.267 21.6396 104.682 20.7245 104.682 19.5279V18.8152Z" fill="white"/>
<path d="M124.981 26.2457H129.151V6H124.981V26.2457Z" fill="white"/>
</svg>
