<svg width="32" height="32" viewBox="0 0 32 32" fill="none" xmlns="http://www.w3.org/2000/svg">
<path fill-rule="evenodd" clip-rule="evenodd" d="M15.912 3.5675C16 2.78622 16 1.85748 16 0C16 1.85748 16 2.78622 16.088 3.5675C16.8194 10.0582 21.9418 15.1806 28.4325 15.912C29.2138 16 30.1425 16 32 16C30.1425 16 29.2138 16 28.4325 16.088C21.9418 16.8194 16.8194 21.9418 16.088 28.4325C16 29.2138 16 30.1425 16 32C16 30.1425 16 29.2138 15.912 28.4325C15.1806 21.9418 10.0582 16.8194 3.5675 16.088C2.78622 16 1.85748 16 0 16C1.85748 16 2.78622 16 3.5675 15.912C10.0582 15.1806 15.1806 10.0582 15.912 3.5675Z" fill="white"/>
</svg>
